<svg xmlns="http://www.w3.org/2000/svg" xmlns:xlink="http://www.w3.org/1999/xlink" zoomAndPan="magnify" viewBox="142 337 464 313" preserveAspectRatio="xMidYMid meet" version="1.0"><defs><filter x="0%" y="0%" width="100%" height="100%" id="d97c9c9083"><feColorMatrix values="0 0 0 0 1 0 0 0 0 1 0 0 0 0 1 0 0 0 1 0" color-interpolation-filters="sRGB"/></filter><mask id="973e6c96ae"><g filter="url(#d97c9c9083)"><rect x="-81" width="972" fill="#000000" y="-101.249997" height="1214.999964" fill-opacity="0.92"/></g></mask><clipPath id="9640a50129"><rect x="0" width="456" y="0" height="305"/></clipPath></defs><g mask="url(#973e6c96ae)"><g transform="matrix(1, 0, 0, 1, 146, 341)"><g clip-path="url(#9640a50129)"><path fill="#165009" d="M 179.558594 228.960938 C 180.703125 226.4375 181.5 224.882812 182.121094 223.269531 C 193.980469 192.773438 208.605469 163.585938 223.3125 134.40625 C 225.589844 129.894531 228.613281 128.308594 233.203125 128.433594 C 235.632812 128.5 238.0625 128.445312 241.355469 128.445312 C 240.210938 130.625 239.511719 132.167969 238.636719 133.609375 C 220.664062 163.085938 206.125 194.300781 192.023438 225.746094 C 182.429688 247.128906 177.320312 269.75 172.558594 292.507812 C 172.136719 294.511719 171.707031 296.519531 171.214844 298.507812 C 170.140625 302.886719 167.527344 304.289062 162.546875 303.203125 C 157.675781 302.144531 155.640625 299.582031 156.574219 295.195312 C 158.570312 285.707031 161.132812 276.328125 162.726562 266.773438 C 165.300781 251.441406 167.382812 236.011719 169.476562 220.601562 C 172.339844 199.410156 172.945312 178.082031 171.972656 156.769531 C 170.695312 128.855469 167.835938 101.15625 157.167969 74.914062 C 149.074219 55 137.148438 37.929688 119.625 25.160156 C 103.574219 13.464844 85.742188 8.960938 66.164062 13.148438 C 51.40625 16.308594 40.46875 25.273438 32.855469 37.890625 C 13.117188 70.613281 11.109375 104.621094 27.414062 139.265625 C 33.875 152.996094 44.320312 163.421875 58.183594 169.96875 C 82.238281 181.339844 107.777344 171.796875 118.867188 147.503906 C 123.496094 137.382812 124.582031 126.714844 123.476562 115.808594 C 122.007812 101.339844 117.601562 87.753906 110.351562 75.125 C 106.605469 68.605469 101.835938 63.007812 95.035156 59.5625 C 92.65625 58.351562 89.9375 57.496094 87.289062 57.199219 C 82.851562 56.699219 81.132812 58.804688 80.183594 63.171875 C 79.269531 67.339844 78.070312 71.640625 75.96875 75.28125 C 73.777344 79.070312 69.59375 80.328125 65.183594 79.523438 C 61.210938 78.792969 59.347656 75.742188 58.089844 72.273438 C 52.320312 56.421875 62.574219 42.894531 79.425781 44.121094 C 89.207031 44.832031 97.0625 49.527344 103.925781 56.152344 C 112.183594 64.121094 117.292969 74.070312 121.375 84.59375 C 127.691406 100.878906 131.800781 117.757812 128.652344 135.15625 C 124.234375 159.628906 109.21875 176.105469 85.734375 183.421875 C 62.804688 190.566406 43.074219 182.597656 26.855469 166.015625 C 12.941406 151.785156 5.644531 134.050781 2.726562 114.492188 C -0.558594 92.570312 1.085938 71.132812 9.371094 50.410156 C 29.082031 1.078125 73.652344 -5.402344 108.421875 8.078125 C 133.191406 17.6875 151.023438 35.203125 162.824219 58.964844 C 173.414062 80.300781 178.867188 103.058594 181.539062 126.5625 C 184.160156 149.566406 185.148438 172.640625 183.1875 195.75 C 182.277344 206.476562 180.882812 217.152344 179.578125 228.953125 Z M 179.558594 228.960938 " fill-opacity="1" fill-rule="nonzero"/><path fill="#165009" d="M 346.886719 236.230469 L 346.886719 174.109375 C 346.425781 174.539062 346.609375 174.214844 346.808594 174.203125 C 356.902344 173.742188 367 172.726562 377.074219 173.015625 C 390.296875 173.390625 399.78125 182.039062 401.402344 195.261719 C 402.171875 201.484375 401.789062 208.183594 400.308594 214.273438 C 397.160156 227.234375 386.683594 235.097656 371.871094 236.125 C 363.457031 236.710938 354.980469 236.230469 346.894531 236.230469 Z M 356.054688 203.988281 C 355.960938 203.988281 355.863281 203.988281 355.777344 203.988281 C 355.777344 211.351562 355.699219 218.726562 355.824219 226.09375 C 355.863281 228.558594 356.402344 230.902344 359.328125 231.9375 C 369.363281 235.511719 383.671875 231.007812 388.578125 221.875 C 394.683594 210.507812 394.328125 198.757812 388.222656 187.417969 C 386.859375 184.882812 384.503906 182.625 382.125 180.945312 C 374.960938 175.894531 366.78125 175.789062 358.542969 177.210938 C 357.542969 177.382812 356.210938 179.449219 356.179688 180.675781 C 355.96875 188.445312 356.074219 196.210938 356.074219 203.988281 Z M 356.054688 203.988281 " fill-opacity="1" fill-rule="nonzero"/><path fill="#165009" d="M 290.371094 173.707031 C 299.15625 173.707031 308.433594 173.101562 317.589844 173.886719 C 325.503906 174.570312 329.027344 182.011719 326.472656 190.429688 C 325.003906 195.269531 321.671875 198.59375 317.496094 201.183594 C 316.007812 202.105469 314.492188 202.972656 312.464844 204.171875 C 320.300781 214.703125 327.921875 224.96875 335.46875 235.128906 C 330.613281 237.183594 326.195312 236.078125 322.996094 231.621094 C 317.910156 224.515625 312.867188 217.382812 307.769531 210.289062 C 305.792969 207.53125 303.542969 205.199219 299.789062 206.253906 L 299.789062 235.492188 L 290.371094 235.492188 L 290.371094 173.695312 Z M 299.011719 190.039062 C 299.011719 193.917969 299.136719 196.507812 298.972656 199.09375 C 298.800781 201.78125 300.070312 202.835938 302.546875 202.816406 C 308.085938 202.789062 313.328125 201.769531 316.265625 196.472656 C 318.992188 191.554688 319.398438 186.167969 316.488281 181.234375 C 313.433594 176.058594 308 176.613281 302.929688 176.671875 C 300.78125 176.703125 299.742188 177.652344 299.65625 179.890625 C 299.511719 183.699219 299.175781 187.492188 299.003906 190.027344 Z M 299.011719 190.039062 " fill-opacity="1" fill-rule="nonzero"/><path fill="#165009" d="M 450.59375 178.648438 C 444.132812 178.074219 437.707031 177.5 431.285156 176.933594 C 428.894531 176.71875 427.769531 177.816406 427.722656 180.246094 C 427.597656 186.121094 427.445312 191.988281 427.195312 197.855469 C 427.078125 200.53125 428.230469 201.445312 430.832031 201.398438 C 437.09375 201.28125 443.351562 201.359375 449.691406 201.359375 C 447.242188 204.179688 443.507812 204.660156 439.898438 205.101562 C 436.929688 205.46875 433.886719 205.554688 430.898438 205.382812 C 427.914062 205.207031 427.070312 206.476562 427.175781 209.210938 C 427.433594 215.894531 427.433594 222.597656 427.847656 229.28125 C 427.914062 230.449219 429.460938 232.476562 430.363281 232.496094 C 438.792969 232.71875 447.367188 233.320312 454.730469 227.722656 C 455.191406 235.128906 454.703125 235.789062 447.5 235.867188 C 437.699219 235.972656 427.894531 235.894531 418.550781 235.894531 L 418.550781 173.878906 C 422.039062 173.878906 426.082031 173.917969 430.121094 173.878906 C 435.171875 173.820312 440.222656 173.6875 445.273438 173.609375 C 450.890625 173.523438 451.121094 173.800781 450.601562 178.660156 Z M 450.59375 178.648438 " fill-opacity="1" fill-rule="nonzero"/><path fill="#165009" d="M 269.265625 178.660156 C 262.824219 178.082031 256.410156 177.5 249.988281 176.941406 C 247.691406 176.738281 246.40625 177.625 246.347656 180.15625 C 246.222656 186.035156 246.011719 191.902344 245.734375 197.765625 C 245.609375 200.40625 246.65625 201.433594 249.304688 201.398438 C 255.671875 201.292969 262.046875 201.359375 268.796875 202.058594 C 265.4375 203.085938 262.113281 204.25 258.707031 205.09375 C 257.148438 205.488281 255.441406 205.285156 253.808594 205.332031 C 245.722656 205.5625 245.65625 205.5625 245.773438 213.867188 C 245.847656 219.054688 246.011719 224.257812 246.492188 229.421875 C 246.597656 230.574219 248.171875 232.488281 249.113281 232.515625 C 257.554688 232.765625 266.117188 233.273438 273.492188 227.667969 C 273.769531 235.222656 273.347656 235.800781 266.203125 235.867188 C 256.390625 235.960938 246.578125 235.894531 237.109375 235.894531 L 237.109375 173.898438 C 239.378906 173.898438 242.179688 173.925781 244.976562 173.898438 C 251.253906 173.820312 257.542969 173.707031 263.824219 173.621094 C 269.449219 173.542969 269.707031 173.832031 269.257812 178.667969 Z M 269.265625 178.660156 " fill-opacity="1" fill-rule="nonzero"/><path fill="#165009" d="M 350.332031 271.796875 C 344.128906 271.785156 340.25 267.714844 340.339844 261.339844 C 340.433594 254.800781 345.386719 249.867188 351.8125 249.933594 C 357.949219 249.988281 361.960938 254.195312 361.84375 260.445312 C 361.730469 266.9375 356.785156 271.804688 350.332031 271.796875 Z M 343.792969 260.457031 C 343.71875 266.253906 346.820312 270.316406 351.273438 270.238281 C 355.507812 270.171875 358.3125 266.6875 358.339844 261.453125 C 358.371094 255.953125 355.34375 252.046875 350.976562 251.929688 C 346.644531 251.816406 343.863281 255.117188 343.792969 260.445312 Z M 343.792969 260.457031 " fill-opacity="1" fill-rule="nonzero"/><path fill="#165009" d="M 398.226562 271.363281 L 391.621094 271.363281 C 391.890625 269.460938 392.695312 267.542969 392.273438 265.949219 C 391.410156 262.75 388.414062 263.691406 386.433594 264.285156 C 385.003906 264.71875 383.582031 266.449219 383.015625 267.9375 C 382.757812 268.617188 384.554688 270.078125 385.476562 271.257812 L 378.964844 271.257812 C 381.460938 265.132812 383.988281 258.785156 386.683594 252.515625 C 387.089844 251.574219 388.347656 251 389.210938 250.25 C 389.910156 251.113281 390.910156 251.863281 391.253906 252.851562 C 392.464844 256.328125 393.300781 259.929688 394.558594 263.382812 C 395.539062 266.074219 396.949219 268.617188 398.226562 271.363281 Z M 384.746094 262.664062 C 387.367188 262.433594 389.019531 262.289062 391.285156 262.089844 C 390.296875 259.148438 389.5 256.777344 388.703125 254.40625 C 388.335938 254.453125 387.980469 254.511719 387.617188 254.5625 C 386.769531 256.941406 385.925781 259.324219 384.746094 262.675781 Z M 384.746094 262.664062 " fill-opacity="1" fill-rule="nonzero"/><path fill="#165009" d="M 403.574219 265.113281 C 404.609375 268.839844 406.484375 271.296875 410.5625 269.894531 C 411.792969 269.472656 413.195312 268.183594 413.519531 267.015625 C 413.761719 266.160156 412.609375 264.515625 411.648438 263.808594 C 409.910156 262.519531 407.570312 261.984375 406.023438 260.542969 C 404.582031 259.207031 402.902344 256.988281 403.085938 255.359375 C 403.277344 253.667969 405.371094 251.882812 407.050781 250.769531 C 408.277344 249.953125 410.191406 249.941406 411.792969 249.953125 C 416.410156 249.980469 417.082031 251.21875 415.605469 254.714844 C 413.414062 253.753906 411.351562 252.457031 409.113281 252.035156 C 408.203125 251.863281 406.425781 253.417969 406.003906 254.542969 C 405.714844 255.320312 406.839844 257.066406 407.78125 257.75 C 409.640625 259.09375 411.890625 259.878906 413.839844 261.117188 C 418.160156 263.875 418.074219 268.683594 413.359375 270.59375 C 410.746094 271.652344 407.375 271.957031 404.640625 271.324219 C 400.875 270.460938 402.835938 267.523438 403.582031 265.082031 Z M 403.574219 265.113281 " fill-opacity="1" fill-rule="nonzero"/><path fill="#165009" d="M 325.820312 276.933594 C 330.878906 273.109375 330.132812 267.722656 330.160156 262.578125 C 330.179688 258.476562 330.371094 254.367188 330.0625 250.289062 C 329.921875 248.386719 328.777344 246.554688 328.019531 244.507812 L 334.578125 244.507812 C 334.136719 246.734375 333.386719 249.125 333.222656 251.566406 C 332.867188 257.007812 332.867188 262.480469 332.609375 267.9375 C 332.40625 272.292969 330.726562 275.730469 325.8125 276.921875 Z M 325.820312 276.933594 " fill-opacity="1" fill-rule="nonzero"/><path fill="#165009" d="M 374.664062 271.410156 L 366.992188 271.410156 C 370.046875 267.261719 370.277344 254.195312 367.195312 250.480469 L 374.144531 250.480469 C 370.785156 256 372.253906 262.175781 372.121094 268.097656 C 372.101562 269.058594 373.578125 270.046875 374.671875 271.410156 Z M 374.664062 271.410156 " fill-opacity="1" fill-rule="nonzero"/></g></g></g></svg>